<mxfile host="app.diagrams.net" modified="2024-03-09T21:00:33.474Z" agent="Mozilla/5.0 (Windows NT 10.0; Win64; x64; rv:123.0) Gecko/20100101 Firefox/123.0" version="24.0.4" etag="s4TfDqpG6ILF3SZZmwjp" type="github">
  <diagram name="Page-1" id="yATI01vaJXco-zRij6Aj">
    <mxGraphModel>
      <root>
        <mxCell id="0" />
        <mxCell id="1" parent="0" />
      </root>
    </mxGraphModel>
  </diagram>
</mxfile>
